<svg height="512pt" viewBox="0 -2 512 512" width="512pt" xmlns="http://www.w3.org/2000/svg"><path d="m424.148438 429.371094-11.28125-3.796875c-1.664063-.554688-3.175782-1.515625-4.40625-2.8125-1.957032-2.039063-3.035157-4.738281-3.035157-7.601563v-11.605468l3.363281-2.050782c7.003907-4.269531 11.351563-12.023437 11.351563-20.230468v-19.960938c0-.027344 0-.050781 0-.074219v-17.429687c0-14.421875-11.71875-26.15625-26.125-26.15625h-23.050781c-14.40625 0-26.125 11.734375-26.125 26.15625v15.007812.023438 22.433594c0 8.207031 4.351562 15.960937 11.355468 20.230468l3.371094 2.054688v11.601562c0 3.042969-1.285156 5.988282-3.507812 8.066406-1.140625 1.0625-2.476563 1.855469-3.964844 2.355469l-11.265625 3.789063c-5.863281 1.972656-11.089844 5.128906-15.550781 9.371094-.042969.039062-.082032.078124-.125.117187-.042969.039063-.085938.078125-.128906.117187-.042969.042969-.078126.085938-.121094.128907-.105469.109375-.210938.21875-.3125.335937-.070313.078125-.136719.160156-.203125.242188-.082031.105468-.164063.210937-.242188.320312-.070312.101563-.140625.203125-.207031.308594-.058594.09375-.121094.1875-.175781.285156-.070313.121094-.136719.242188-.199219.363282-.042969.089843-.089844.179687-.128906.269531-.058594.132812-.117188.261719-.167969.394531-.039063.09375-.070313.1875-.105469.28125-.042968.128906-.085937.257812-.125.394531-.027344.101563-.054687.207031-.082031.3125-.027344.125-.054687.246094-.078125.367188-.023438.121093-.042969.246093-.058594.367187-.015625.109375-.027344.21875-.039062.328125-.011719.136719-.019532.273438-.027344.410157-.003906.097656-.003906.199218-.003906.296874 0 .144532.003906.285157.011718.429688.003907.097656.011719.199219.023438.300781.011719.132813.03125.269531.050781.40625.019531.113281.039063.222657.0625.335938.023438.117187.050781.238281.078125.359375.035156.128906.074219.257812.113282.386718.03125.097657.0625.199219.097656.296876.050781.144531.109375.289062.171875.4375.023437.050781.039062.105468.0625.15625 2.125 4.632812 3.199219 9.578124 3.199219 14.703124v38.613282c0 4.144531 3.359374 7.5 7.5 7.5 4.140624 0 7.5-3.355469 7.5-7.5v-38.613282c0-5.304687-.820313-10.476562-2.429688-15.445312 1.980469-1.324219 4.125-2.386719 6.429688-3.164062l11.257812-3.785157c2.027344-.683593 3.933594-1.601562 5.710938-2.738281 3.113281.910156 6.269531 1.597656 9.464843 2.042969l-11.292969 39.925781c-.699218 2.476562-.082031 5.132812 1.632813 7.046875l13.789063 15.378906c1.378906 1.539063 3.332031 2.441407 5.398437 2.492188h.1875c1.996094 0 3.914063-.796875 5.324219-2.21875l15.25-15.375c1.957031-1.976563 2.660156-4.871094 1.832031-7.523438l-12.496094-39.953125c3.332031-.542968 6.617188-1.351562 9.847657-2.402344 2.023437 1.410157 4.242187 2.542969 6.582031 3.324219l11.253906 3.785157c11.09375 3.738281 18.546875 14.132812 18.546875 25.859374v31.363282c0 4.144531 3.355469 7.5 7.5 7.5 4.140625 0 7.5-3.355469 7.5-7.5v-31.363282c0-18.171874-11.554688-34.277343-28.757812-40.074218zm-41.9375-4.644532c-3.109376.0625-6.195313-.15625-9.234376-.648437 1.039063-2.835937 1.589844-5.851563 1.589844-8.917969v-3.03125c2.566406.917969 5.246094 1.378906 7.925782 1.378906 2.683593 0 5.367187-.464843 7.933593-1.382812v3.035156c0 2.910156.476563 5.75 1.390625 8.429688-3.15625.679687-6.367187 1.0625-9.605468 1.136718zm-22.367188-61.242187 13.5-7.046875 31.796875 10.238281v14.59375c0 3.015625-1.59375 5.863281-4.164063 7.429688l-13.984374 8.527343c-2.777344 1.691407-6.222657 1.691407-9 0l-13.984376-8.527343c-2.570312-1.566407-4.164062-4.414063-4.164062-7.429688zm11.121094-30.832031h23.054687c6.132813 0 11.121094 5.003906 11.121094 11.15625v7.105468l-30.1875-9.71875c-1.914063-.617187-3.992187-.4375-5.773437.492188l-9.335938 4.875v-2.753906c0-6.152344 4.988281-11.15625 11.121094-11.15625zm11.074218 152.871094-5.722656-6.382813 5.808594-20.539063 6.382812 20.398438zm0 0"/><path d="m307.402344 414.511719-13.875-4.675781c-2.328125-.78125-4.449219-2.125-6.132813-3.878907 0-.003906-.003906-.007812-.007812-.011719-2.734375-2.871093-4.238281-6.628906-4.238281-10.589843v-15.246094l4.980468-3.035156c8.109375-4.945313 13.148438-13.921875 13.148438-23.429688v-24.597656c0-.027344 0-.050781 0-.074219v-21.449218c0-16.800782-13.652344-30.46875-30.429688-30.46875h-28.378906c-16.777344 0-30.425781 13.667968-30.425781 30.46875v18.503906.023437 27.59375c0 9.507813 5.035156 18.484375 13.144531 23.429688l4.984375 3.039062v15.242188c0 4.234375-1.78125 8.328125-4.863281 11.203125-1.609375 1.492187-3.464844 2.59375-5.527344 3.28125l-13.859375 4.675781c-10.164063 3.425781-18.9375 10.070313-25.046875 18.742187-2.621094-1.585937-5.421875-2.886718-8.386719-3.886718l-11.285156-3.796875c-1.683594-.558594-3.160156-1.496094-4.402344-2.800781-1.960937-2.054688-3.042969-4.753907-3.042969-7.613282v-11.601562l3.367188-2.054688c7.003906-4.269531 11.351562-12.023437 11.351562-20.230468v-19.960938c0-.027344 0-.050781 0-.074219v-17.429687c0-14.421875-11.71875-26.15625-26.125-26.15625h-23.050781c-14.40625 0-26.125 11.734375-26.125 26.15625v15.007812.023438 22.433594c0 8.207031 4.351563 15.960937 11.355469 20.230468l3.367188 2.054688v11.601562c0 3.050782-1.28125 5.992188-3.507813 8.066406-1.144531 1.066407-2.476563 1.859376-3.957031 2.355469l-11.261719 3.789063c-17.199219 5.796875-28.753906 21.898437-28.753906 40.074218v31.363282c0 4.140625 3.355469 7.5 7.5 7.5 4.140625 0 7.5-3.359375 7.5-7.5v-31.363282c0-11.730468 7.453125-22.121093 18.539062-25.859374l11.257813-3.785157c2.027344-.683593 3.929687-1.605469 5.707031-2.742187 3.113281.914062 6.269531 1.601562 9.464844 2.042968l-11.292969 39.929688c-.699219 2.472656-.082031 5.132812 1.632812 7.046875l13.789063 15.378906c1.378906 1.539063 3.332031 2.4375 5.394531 2.492188h.1875c2 0 3.917969-.796875 5.328125-2.21875l15.246094-15.378907c1.957031-1.972656 2.664063-4.867187 1.832031-7.519531l-12.496094-39.953125c3.332032-.542968 6.621094-1.351562 9.851563-2.40625 2.03125 1.417969 4.25 2.550782 6.585937 3.324219l11.253907 3.789063c2.308593.777343 4.457031 1.839843 6.433593 3.164062-1.605468 4.96875-2.425781 10.140625-2.425781 15.441406v38.617188c0 4.140625 3.355469 7.5 7.5 7.5 4.140625 0 7.5-3.359375 7.5-7.5v-38.617188c0-5.121094 1.074219-10.066406 3.199219-14.707031 4.03125-8.820313 11.613281-15.660156 20.808594-18.757813l13.839844-4.667968c2.609374-.871094 5.054687-2.085938 7.320312-3.621094 4.632812 1.410156 9.359375 2.382812 14.148438 2.925781l-14.453126 51.105469c-.699218 2.472656-.085937 5.132812 1.632813 7.046875l16.972656 18.933594c1.378907 1.535156 3.332031 2.4375 5.398438 2.488281.0625.003906.125.003906.1875.003906 1.996093 0 3.914062-.796875 5.324219-2.21875l18.773437-18.933594c1.957031-1.972656 2.660156-4.867187 1.832031-7.519531l-15.992187-51.136719c4.980469-.679687 9.890625-1.828124 14.6875-3.449218 2.539062 1.878906 5.363281 3.367187 8.359375 4.371094l13.859375 4.671874c.796875.265626 1.605469.394532 2.398437.394532 3.128906 0 6.050782-1.976563 7.105469-5.105469 1.328125-3.925781-.78125-8.179687-4.707031-9.503906zm-176.855469 10.214843c-3.109375.0625-6.195313-.15625-9.234375-.648437 1.035156-2.835937 1.585938-5.851563 1.585938-8.917969v-3.035156c2.566406.921875 5.25 1.382812 7.929687 1.382812 2.683594 0 5.363281-.460937 7.929687-1.382812v3.035156c0 2.90625.480469 5.75 1.390626 8.429688-3.152344.679687-6.363282 1.0625-9.601563 1.136718zm-22.367187-61.242187 13.5-7.046875 31.800781 10.238281v14.59375c0 3.015625-1.597657 5.863281-4.164063 7.429688l-13.988281 8.527343c-2.773437 1.691407-6.222656 1.691407-8.996094 0l-13.988281-8.527343c-2.566406-1.566407-4.164062-4.414063-4.164062-7.429688zm11.125-30.832031h23.050781c6.132812 0 11.125 5.003906 11.125 11.15625v7.105468l-30.191407-9.71875c-1.910156-.617187-3.992187-.4375-5.769531.492188l-9.339843 4.875v-2.753906c0-6.152344 4.992187-11.15625 11.125-11.15625zm11.070312 152.871094-5.722656-6.382813 5.8125-20.539063 6.378906 20.398438zm125.972656-76.652344c-4.648437.097656-9.265625-.316406-13.800781-1.210938 1.710937-3.84375 2.628906-8.035156 2.628906-12.304687v-6.320313c3.648438 1.695313 7.566407 2.554688 11.484375 2.554688 3.921875 0 7.835938-.863282 11.488282-2.558594v6.324219c0 4.042969.800781 7.980469 2.316406 11.625-4.625 1.152343-9.34375 1.789062-14.117188 1.890625zm-13.878906-116.816406h28.382812c8.503907 0 15.425782 6.9375 15.425782 15.46875v11.128906l-39.433594-12.699219c-1.910156-.613281-3.988281-.4375-5.769531.492187l-14.03125 7.328126v-6.25c0-8.53125 6.921875-15.46875 15.425781-15.46875zm-15.425781 38.640624 18.191406-9.5 41.042969 13.214844v19.234375c0 4.3125-2.28125 8.382813-5.957032 10.621094l-17.21875 10.5c-3.972656 2.421875-8.910156 2.421875-12.882812 0l-17.21875-10.5c-3.671875-2.238281-5.957031-6.3125-5.957031-10.621094zm28.996093 153.820313-8.910156-9.9375 8.996094-31.804687 9.90625 31.664062zm0 0"/><path d="m509.804688 368.613281-171.539063-171.578125c-.011719-.011718-.023437-.019531-.035156-.03125l-60.578125-60.59375c-3.949219-3.953125-8.835938-6.625-14.152344-7.824218v-47.277344h82.308594c4.417968 0 8.28125-2.667969 9.839844-6.800782 1.5625-4.132812.429687-8.691406-2.886719-11.609374l-19.511719-17.1875 19.511719-17.1875c3.316406-2.917969 4.449219-7.476563 2.886719-11.609376-1.558594-4.132812-5.421876-6.804687-9.839844-6.804687h-82.308594v-2.609375c0-4.144531-3.359375-7.5-7.5-7.5s-7.5 3.355469-7.5 7.5v121.609375c-4.535156 1.375-8.6875 3.851563-12.132812 7.300781l-26.675782 26.683594c-2.929687 2.929688-2.929687 7.675781 0 10.605469 2.929688 2.925781 7.679688 2.929687 10.605469-.003907l26.675781-26.679687c2.679688-2.683594 6.246094-4.160156 10.035156-4.160156 3.792969 0 7.355469 1.476562 10.039063 4.160156l54.097656 54.113281-23.230469 15.324219-27.8125-19.464844c-2.660156-1.863281-6.21875-1.800781-8.8125.152344l-25.476562 19.1875-24.445312-16.320313c-2.039063-1.359374-4.613282-1.640624-6.898438-.746093l-15.972656 6.242187 8.023437-8.027344c2.929688-2.929687 2.929688-7.675781 0-10.605468-2.929687-2.925782-7.679687-2.925782-10.605469 0l-33.253906 33.265625c-.015625.011719-.027344.023437-.039062.039062l-150.425782 150.457031c-2.929687 2.929688-2.925781 7.679688 0 10.605469 1.464844 1.464844 3.386719 2.195313 5.304688 2.195313 1.921875 0 3.839844-.730469 5.304688-2.195313l149.265624-149.300781 44.21875-17.28125 25.617188 17.105469c2.652344 1.769531 6.132812 1.671875 8.675781-.246094l25.378907-19.113281 27.523437 19.265625c2.519531 1.765625 5.863281 1.8125 8.433594.117187l30.050781-19.828125 167.226562 167.261719c1.464844 1.464844 3.382813 2.199219 5.304688 2.199219 1.917969 0 3.835938-.734375 5.300781-2.195313 2.929688-2.929687 2.929688-7.679687.003907-10.609375zm-175.863282-343.503906-14.425781 12.707031c-2.265625 1.996094-3.5625 4.875-3.5625 7.894532 0 3.019531 1.296875 5.898437 3.5625 7.894531l14.425781 12.703125h-70.441406v-41.199219zm0 0"/></svg>