<svg id="Capa_1" enable-background="new 0 0 511.552 511.552" height="512" viewBox="0 0 511.552 511.552" width="512" xmlns="http://www.w3.org/2000/svg"><path d="m160.662 327.551v-50.796l42.406-21.203-42.406-21.203v-75.533h-20.053v-30h81v-90.414c-52.493 3.55-101.358 25.68-138.913 63.236-41.111 41.112-63.753 95.773-63.753 153.913 0 58.141 22.642 112.802 63.753 153.914 2.48 2.48 5.013 4.89 7.59 7.236z"/><path d="m419.832 76.763c-44.915-46.022-104.384-73.081-168.223-76.763v128.816h81v30h-20.053v75.533l-42.406 21.203 42.406 21.203v75.534h20.053v30h-176.937l-65.651 83.164c43.078 30.194 93.516 46.099 146.588 46.099 68.38 0 132.667-26.628 181.019-74.981 48.352-48.352 74.98-112.639 74.98-181.019.001-67.206-25.845-130.701-72.776-178.789z"/><path d="m236.609 272.322-45.947 22.974v56.993h91.894v-56.993z"/><path d="m236.609 238.781 45.947-22.973v-56.992h-91.894v56.992z"/></svg>